<svg xmlns="http://www.w3.org/2000/svg" version="1.1" id="Layer_1" viewBox="0 0 200 200" width="200" height="200"><metadata><rdf:RDF xmlns:rdf="http://www.w3.org/1999/02/22-rdf-syntax-ns#" xmlns:dc="http://purl.org/dc/elements/1.1/"><rdf:Description><dc:creator>RealFaviconGenerator</dc:creator><dc:source>https://realfavicongenerator.net</dc:source></rdf:Description></rdf:RDF></metadata><defs>
    <style>
      .st0 {
        fill: #2cdda0;
      }

      .st1 {
        stroke: #08221a;
        stroke-miterlimit: 10;
        stroke-width: 2px;
      }

      .st1, .st2 {
        fill: #08221a;
      }
    </style>
  </defs><rect class="st0" width="200" height="200"></rect><g>
    <path class="st1" d="M126.03,67.91c.93-1.85,2.16-2.98,4.42-2.98,2.67,0,4.63,1.65,4.63,4.63v60.79c0,2.57-1.75,4.73-4.63,4.73s-4.73-2.16-4.73-4.73v-41.66l-21.4,43.51c-.82,1.75-2.06,2.88-4.32,2.88s-3.5-1.13-4.32-2.88l-21.4-43.51v41.66c0,2.57-1.75,4.73-4.73,4.73s-4.63-2.16-4.63-4.73v-60.79c0-2.98,1.95-4.63,4.63-4.63,2.26,0,3.5,1.13,4.42,2.98l26.03,53.39,26.03-53.39Z"></path>
    <path class="st2" d="M169.23,78.93c.56,1.28,1.24,2.16,2.22,2.73,2.4,1.4,4.95.51,6.19-1.63.67-1.15.66-2.35.33-3.62-.03-.14-.11-.42-.11-.42h-.03c-10.25-33.25-41.21-57.41-77.82-57.41-44.97,0-81.43,36.46-81.43,81.43s36.46,81.43,81.43,81.43,81.43-36.46,81.43-81.43c0-.87-.04-1.73-.07-2.59h-9.29s0,.01,0,.02h-19.26c-2.57,0-4.73,1.75-4.73,4.73s2.16,4.63,4.73,4.63h19c-3.43,36.66-34.26,65.35-71.81,65.35-39.84,0-72.14-32.3-72.14-72.14S60.16,27.86,100,27.86c31.42,0,58.12,20.09,68.01,48.13"></path>
  </g></svg>